<svg width="100%" viewBox="0 0 46 46" fill="none" xmlns="http://www.w3.org/2000/svg">
<g filter="url(#filter0_d)">
<path d="M33.2916 23.7475L22.9991 32.0275L12.7258 23.4408C12.532 23.2797 12.3084 23.1584 12.0677 23.0837C11.827 23.009 11.5739 22.9825 11.323 23.0057C11.072 23.0288 10.8281 23.1011 10.6051 23.2186C10.3821 23.336 10.1844 23.4961 10.0233 23.69C9.86222 23.8838 9.74088 24.1074 9.66622 24.3481C9.59156 24.5888 9.56505 24.8419 9.58818 25.0928C9.61132 25.3438 9.68366 25.5877 9.80107 25.8107C9.91848 26.0337 10.0787 26.2314 10.2725 26.3925L21.7725 35.9758C22.1154 36.2577 22.5456 36.4118 22.9896 36.4118C23.4335 36.4118 23.8637 36.2577 24.2066 35.9758L35.7066 26.7183C35.9035 26.5601 36.0672 26.3646 36.1883 26.143C36.3094 25.9213 36.3855 25.6779 36.4122 25.4268C36.4389 25.1757 36.4157 24.9217 36.344 24.6796C36.2722 24.4374 36.1533 24.2118 35.9941 24.0158C35.8346 23.8203 35.638 23.6582 35.4157 23.5389C35.1934 23.4196 34.9497 23.3453 34.6986 23.3204C34.4475 23.2955 34.194 23.3204 33.9525 23.3936C33.7111 23.4669 33.4865 23.5872 33.2916 23.7475Z" fill="black"/>
<path d="M21.7725 22.5593C22.1154 22.8412 22.5456 22.9953 22.9896 22.9953C23.4335 22.9953 23.8637 22.8412 24.2066 22.5593L35.7066 13.3018C35.9035 13.1436 36.0672 12.9481 36.1883 12.7265C36.3094 12.5048 36.3855 12.2614 36.4122 12.0103C36.4389 11.7592 36.4157 11.5052 36.344 11.2631C36.2722 11.0209 36.1534 10.7953 35.9941 10.5993C35.836 10.4024 35.6405 10.2387 35.4188 10.1176C35.1972 9.99654 34.9538 9.92045 34.7027 9.89373C34.4515 9.86702 34.1976 9.8902 33.9554 9.96194C33.7133 10.0337 33.4877 10.1526 33.2916 10.3118L22.9991 18.611L12.7258 10.0243C12.3344 9.69896 11.8298 9.54244 11.323 9.58917C10.8161 9.63589 10.3486 9.88204 10.0233 10.2735C9.69798 10.6649 9.54146 11.1695 9.58819 11.6763C9.63492 12.1831 9.88106 12.6506 10.2725 12.976L21.7725 22.5593Z" fill="black"/>
</g>
<defs>
<filter id="filter0_d" x="-4" y="0" width="54" height="54" filterUnits="userSpaceOnUse" color-interpolation-filters="sRGB">
<feFlood flood-opacity="0" result="BackgroundImageFix"/>
<feColorMatrix in="SourceAlpha" type="matrix" values="0 0 0 0 0 0 0 0 0 0 0 0 0 0 0 0 0 0 127 0"/>
<feOffset dy="4"/>
<feGaussianBlur stdDeviation="2"/>
<feColorMatrix type="matrix" values="0 0 0 0 0 0 0 0 0 0 0 0 0 0 0 0 0 0 0.25 0"/>
<feBlend mode="normal" in2="BackgroundImageFix" result="effect1_dropShadow"/>
<feBlend mode="normal" in="SourceGraphic" in2="effect1_dropShadow" result="shape"/>
</filter>
</defs>
</svg>
