<svg viewBox="0 0 26 23" fill="none" xmlns="http://www.w3.org/2000/svg">
<path d="M17.0309 0.440318C16.9009 0.379645 16.7969 0.440318 16.7969 0.587666V18.1742L24.5023 22.0226C24.8837 22.2133 25.1958 22.0226 25.1958 21.5892V4.66143C25.1958 4.57475 25.1524 4.49674 25.0744 4.46207L17.0309 0.440318Z" fill="black"/>
<path d="M8.39844 13.9791L16.6586 0.553037C16.7366 0.431691 16.9013 0.379686 17.0313 0.449026L25.0142 4.43611C25.1095 4.48812 25.1529 4.60946 25.0922 4.7048L16.7973 18.1742L8.39844 13.9791Z" fill="black"/>
<path d="M0.927455 0.795524C0.416068 0.535497 0.242717 0.726184 0.546082 1.22024L8.3989 13.9789L16.7978 18.1827L8.45091 4.61792C8.41624 4.55725 8.36423 4.51391 8.30356 4.47924L0.927455 0.795524Z" fill="black"/>
<path d="M8.39888 21.5984C8.39888 22.0231 8.08685 22.2225 7.70547 22.0318L0.468049 18.4088C0.208022 18.2788 0 17.9407 0 17.6547V0.848265C0 0.562235 0.208022 0.432221 0.468049 0.562235L8.29487 4.47998C8.35554 4.51465 8.39888 4.57532 8.39888 4.64466V21.5984Z" fill="black"/>
</svg>
